<svg xmlns="http://www.w3.org/2000/svg" width="744" height="539.286" viewBox="0 0 744 539.286">
  <g id="Group_21" data-name="Group 21" transform="translate(0 0)">
    <path id="Path_298" data-name="Path 298" d="M702.114,584.643v130h-325.7c-37.109,0-67.3-29.16-67.3-65s30.192-65,67.3-65Z" transform="translate(-228 -180.357)" fill="#f2f2f2"/>
    <path id="Path_299" data-name="Path 299" d="M710.114,713.643a5,5,0,0,1-5,5h-334.5a68.5,68.5,0,1,1,0-137h334.5a5,5,0,0,1,0,10h-334.5a58.5,58.5,0,1,0,0,117h334.5a5,5,0,0,1,5,5Z" transform="translate(-228 -180.357)" fill="#ff8552"/>
    <path id="Path_300" data-name="Path 300" d="M702.114,614.643h-350a1,1,0,1,1,0-2h350a1,1,0,0,1,0,2Z" transform="translate(-228 -180.357)" fill="#ccc"/>
    <path id="Path_301" data-name="Path 301" d="M702.114,638.643h-350a1,1,0,1,1,0-2h350a1,1,0,0,1,0,2Z" transform="translate(-228 -180.357)" fill="#ccc"/>
    <path id="Path_302" data-name="Path 302" d="M702.114,662.643h-350a1,1,0,1,1,0-2h350a1,1,0,0,1,0,2Z" transform="translate(-228 -180.357)" fill="#ccc"/>
    <path id="Path_303" data-name="Path 303" d="M702.114,686.643h-350a1,1,0,1,1,0-2h350a1,1,0,0,1,0,2Z" transform="translate(-228 -180.357)" fill="#ccc"/>
    <path id="Path_304" data-name="Path 304" d="M953.832,609.114,872.267,710.342,618.652,505.992c-28.9-23.283-34.111-64.932-11.624-92.84s64.292-31.671,93.189-8.388Z" transform="translate(-228 -180.357)" fill="#f2f2f2"/>
    <path id="Path_305" data-name="Path 305" d="M879.124,714.583a5,5,0,0,1-7.031.756L611.625,505.467a68.5,68.5,0,1,1,85.957-106.679L958.05,608.66a5,5,0,1,1-6.274,7.787L691.307,406.575A58.5,58.5,0,1,0,617.9,497.68L878.367,707.553a5,5,0,0,1,.756,7.031Z" transform="translate(-228 -180.357)" fill="#ccc"/>
    <path id="Path_306" data-name="Path 306" d="M935.009,632.474l-272.538-219.6a1,1,0,1,1,1.255-1.557l272.538,219.6a1,1,0,0,1-1.255,1.557Z" transform="translate(-228 -180.357)" fill="#ccc"/>
    <path id="Path_307" data-name="Path 307" d="M919.951,651.163l-272.538-219.6a1,1,0,1,1,1.255-1.557l272.538,219.6a1,1,0,0,1-1.255,1.557Z" transform="translate(-228 -180.357)" fill="#ccc"/>
    <path id="Path_308" data-name="Path 308" d="M904.893,669.851l-272.538-219.6a1,1,0,1,1,1.255-1.557l272.538,219.6a1,1,0,0,1-1.255,1.557Z" transform="translate(-228 -180.357)" fill="#ccc"/>
    <path id="Path_309" data-name="Path 309" d="M889.835,688.539,617.3,468.942a1,1,0,1,1,1.255-1.557l272.538,219.6a1,1,0,0,1-1.255,1.557Z" transform="translate(-228 -180.357)" fill="#ccc"/>
    <path id="Path_310" data-name="Path 310" d="M971,719.643H229a1,1,0,0,1,0-2H971a1,1,0,0,1,0,2Z" transform="translate(-228 -180.357)" fill="#ccc"/>
    <path id="Path_311" data-name="Path 311" d="M338.081,390.622H326.649l-5.437-44.1,16.873,0Z" fill="#ffb8b8"/>
    <path id="Path_312" data-name="Path 312" d="M318.482,387.355H340.53v13.882H304.6a13.882,13.882,0,0,1,13.882-13.882Z" fill="#2f2e41"/>
    <path id="Path_313" data-name="Path 313" d="M221.286,390.622H209.854l-5.437-44.1,16.873,0Z" fill="#ffb8b8"/>
    <path id="Path_314" data-name="Path 314" d="M201.688,387.355h22.048v13.882h-35.93a13.882,13.882,0,0,1,13.882-13.882Z" fill="#2f2e41"/>
    <path id="Path_315" data-name="Path 315" d="M487.471,243.89v-5a32.25,32.25,0,0,1,32.25-32.25h0a32.25,32.25,0,0,1,32.25,32.25v5a23.25,23.25,0,0,1-23.25,23.25h-18a23.25,23.25,0,0,1-23.25-23.25Z" transform="translate(-228 -180.357)" fill="#2f2e41"/>
    <circle id="Ellipse_64" data-name="Ellipse 64" cx="24.561" cy="24.561" r="24.561" transform="translate(267.16 39.381)" fill="#ffb8b8"/>
    <path id="Path_316" data-name="Path 316" d="M634.488,376.475" transform="translate(-228 -180.357)" fill="#ffb8b8"/>
    <path id="Path_317" data-name="Path 317" d="M386.125,328.713a9.377,9.377,0,0,1,14.28,1.677l21.055-3.983,5.541,12.2-29.812,5.207a9.428,9.428,0,0,1-11.064-15.106Z" transform="translate(-228 -180.357)" fill="#ffb8b8"/>
    <path id="Path_318" data-name="Path 318" d="M500.573,284.328l.275.417L466.322,307.49l-58.258,18.6a3.508,3.508,0,0,0-2.412,3.738l1.271,10.947a3.5,3.5,0,0,0,4.21,3.018l54.83-11.753a19.806,19.806,0,0,0,7.371-3.246l38.788-27.6a9.975,9.975,0,0,0-11.274-16.456Z" transform="translate(-228 -180.357)" fill="#ccc"/>
    <path id="Path_319" data-name="Path 319" d="M554.853,558.466a4.519,4.519,0,0,1-4.138-2.7l-52.41-129.5a1.5,1.5,0,0,0-2.809.158L452.739,552.5a4.5,4.5,0,0,1-5.882,2.891l-14.338-5.377a4.489,4.489,0,0,1-2.9-3.7c-6.45-56.192,49.8-198.03,50.369-199.456l.157-.395L531.425,357.8l.107.116C551.99,380.231,568.806,521,571.969,548.987A4.478,4.478,0,0,1,569,553.734l-12.656,4.476a4.458,4.458,0,0,1-1.488.256Z" transform="translate(-228 -180.357)" fill="#2f2e41"/>
    <path id="Path_320" data-name="Path 320" d="M510.673,362.363c-12.424,0-26.274-2.477-30.538-12.7l-.1-.235.133-.218c3.365-5.521,7.813-14.94,5.422-16.708-4.709-3.482-6.994-9.21-6.792-17.025.44-16.966,12-32.029,28.766-37.482h0a127.64,127.64,0,0,1,14.263-3.672,24.281,24.281,0,0,1,20.133,4.972,24.526,24.526,0,0,1,9.1,18.871c.176,18.131-2.615,43.383-16.912,60.72a4.448,4.448,0,0,1-2.633,1.531A122.219,122.219,0,0,1,510.673,362.363Z" transform="translate(-228 -180.357)" fill="#ccc"/>
    <path id="Path_321" data-name="Path 321" d="M506.051,361.684a9.556,9.556,0,0,1,11.678-6.664,9.408,9.408,0,0,1,1.448.536l15.987-14.549,11.118,7.49L523.42,368.728a9.539,9.539,0,0,1-10.813,4.587,9.394,9.394,0,0,1-6.556-11.631Z" transform="translate(-228 -180.357)" fill="#ffb8b8"/>
    <path id="Path_322" data-name="Path 322" d="M532.632,361.869a4.488,4.488,0,0,1-2.845-1.015l-6.3-5.152a4.5,4.5,0,0,1,.109-7.055l26.442-20.28a1.5,1.5,0,0,0,.283-2.095L534,304.7a13.285,13.285,0,0,1,.887-17.114h0a13.248,13.248,0,0,1,17.888-1.431l.1.109,17.042,24.4a15.193,15.193,0,0,1-.36,24.186L535.31,360.986a4.508,4.508,0,0,1-2.679.882Z" transform="translate(-228 -180.357)" fill="#ccc"/>
    <path id="Path_323" data-name="Path 323" d="M497.965,237.39V225.2l21.756-9.5,20.744,9.5V237.39a2,2,0,0,1-2,2h-38.5a2,2,0,0,1-2-2Z" transform="translate(-228 -180.357)" fill="#2f2e41"/>
    <path id="Path_324" data-name="Path 324" d="M518.722,208.257c-3.2-10.239,3.519-21.972,13.451-26.025s21.813-1.22,30.194,5.476,13.58,16.724,16.335,27.091,3.278,21.177,3.786,31.891c12.2,2.241,20.5,16.714,16.276,28.378s-19.873,17.459-30.678,11.362-13.935-22.485-6.136-32.134a26.374,26.374,0,0,0-30.688-40.91C525.248,215.9,517.7,209.368,518.722,208.257Z" transform="translate(-228 -180.357)" fill="#2f2e41"/>
    <path id="Path_325" data-name="Path 325" d="M381.614,281.44a104.448,104.448,0,0,1-42.348-9.275,4.473,4.473,0,0,1-2.652-4.1V231.643a4.505,4.505,0,0,1,4.5-4.5h81a4.505,4.505,0,0,1,4.5,4.5v36.418a4.473,4.473,0,0,1-2.652,4.1h0a104.448,104.448,0,0,1-42.348,9.275Z" transform="translate(-228 -180.357)" fill="#ff8552"/>
    <path id="Path_326" data-name="Path 326" d="M381.6,251.937a4.505,4.505,0,0,1-1.749-.352l-64.232-27.1a4.5,4.5,0,0,1,.153-8.353l64.233-24.368a4.484,4.484,0,0,1,3.211.007l63.372,24.368a4.5,4.5,0,0,1,.154,8.338l-63.373,27.1A4.507,4.507,0,0,1,381.6,251.937Z" transform="translate(-228 -180.357)" fill="#ff8552"/>
    <circle id="Ellipse_65" data-name="Ellipse 65" cx="6" cy="6" r="6" transform="translate(110.114 82.286)" fill="#3f3d56"/>
    <path id="Path_327" data-name="Path 327" d="M446.965,220.631l-63.373,27.1a4,4,0,0,1-3.127.008l-64.232-27.1a3.925,3.925,0,0,1-1.913-1.681,4,4,0,0,0,1.913,5.681l64.232,27.1a4,4,0,0,0,3.127-.008l63.373-27.1a4,4,0,0,0,1.895-5.673,3.927,3.927,0,0,1-1.895,1.673Z" transform="translate(-228 -180.357)" opacity="0.2"/>
    <path id="Path_328" data-name="Path 328" d="M344.618,268.62a1,1,0,0,0,1-1V234.158L378.6,222.143a1,1,0,0,0,.03-2l-32.981,12.015a1.962,1.962,0,0,0-1.433.575,1.986,1.986,0,0,0-.6,1.425V267.62a1,1,0,0,0,1,1Z" transform="translate(-228 -180.357)" fill="#3f3d56"/>
  </g>
</svg>
