<svg id="Group_20" data-name="Group 20" xmlns="http://www.w3.org/2000/svg" width="825.318" height="679.903" viewBox="0 0 825.318 679.903">
  <circle id="Ellipse_49" data-name="Ellipse 49" cx="83.979" cy="83.979" r="83.979" transform="translate(586.842 284.925)" fill="#ff6584"/>
  <rect id="Rectangle_50" data-name="Rectangle 50" width="825.318" height="26.257" transform="translate(0)" fill="#f2f2f2"/>
  <circle id="Ellipse_50" data-name="Ellipse 50" cx="6.795" cy="6.795" r="6.795" transform="translate(15.29 5.946)" fill="#ff8552"/>
  <circle id="Ellipse_51" data-name="Ellipse 51" cx="6.795" cy="6.795" r="6.795" transform="translate(37.375 5.946)" fill="#ff8552"/>
  <circle id="Ellipse_52" data-name="Ellipse 52" cx="6.795" cy="6.795" r="6.795" transform="translate(59.46 5.946)" fill="#ff8552"/>
  <path id="Path_280" data-name="Path 280" d="M.584,502.277l-.584.5V679.9H825.318V368.779l-9.836.746Z" fill="#f2f2f2"/>
  <rect id="Rectangle_51" data-name="Rectangle 51" width="230.47" height="9.293" transform="translate(59.561 262.641)" fill="#3f3d56"/>
  <rect id="Rectangle_52" data-name="Rectangle 52" width="230.47" height="9.293" transform="translate(59.561 283.086)" fill="#3f3d56"/>
  <rect id="Rectangle_53" data-name="Rectangle 53" width="78.063" height="9.293" transform="translate(59.561 303.531)" fill="#3f3d56"/>
  <circle id="Ellipse_53" data-name="Ellipse 53" cx="9.066" cy="9.066" r="9.066" transform="translate(377.302 653.203)" fill="#fff"/>
  <circle id="Ellipse_54" data-name="Ellipse 54" cx="9.066" cy="9.066" r="9.066" transform="translate(403.593 654.11)" fill="#f2f2f2"/>
  <circle id="Ellipse_55" data-name="Ellipse 55" cx="9.066" cy="9.066" r="9.066" transform="translate(429.884 655.017)" fill="#fff"/>
  <circle id="Ellipse_56" data-name="Ellipse 56" cx="7.253" cy="7.253" r="7.253" transform="translate(405.489 655.923)" fill="#3f3d56"/>
  <path id="Path_281" data-name="Path 281" d="M859.143,567.145c0,59.168-64.753,37.5-144.631,37.5s-144.63,21.672-144.63-37.5,64.753-176.771,144.63-176.771S859.143,507.976,859.143,567.145Z" transform="translate(-187.341 -110.048)" fill="#ff8552"/>
  <path id="Path_282" data-name="Path 282" d="M1003.374,616.762q-25.128-4.257-48.332-7.312l6.115-11.857c-2.062-.716-11.122,6.074-11.122,6.074l8.025-34.417c-10.371,1.251-15.644,36.393-15.644,36.393L930.83,593.761l5.61,13.358A1069.859,1069.859,0,0,0,813.815,599.4l5.234-10.148c-2.062-.716-11.122,6.074-11.122,6.074l8.025-34.417c-10.371,1.251-15.644,36.393-15.644,36.393l-11.587-11.881,5.942,14.148c-13.45.269-25.727.843-36.857,1.6l1.847-3.581c-1.308-.454-5.429,2.11-8.27,4.048-.819.064-1.62.13-2.425.2l7.6-32.587c-8.46,1.02-13.527,24.591-15.107,33.243-1.113.1-2.217.209-3.3.316l-8.742-8.964c7.323-11.363,18.043-20.331,18.043-20.331-13.734,4.085-20.939,10.93-24.7,17.311a277.2,277.2,0,0,1,16.022-95.775S710.379,556.826,714,598.292l.388,6.589c-38.722-3.9-72.769-5.416-102.079-5.48l5.234-10.148c-2.062-.716-11.122,6.074-11.122,6.074l8.025-34.417C604.077,562.161,598.8,597.3,598.8,597.3l-11.587-11.881,5.941,14.148a688.859,688.859,0,0,0-70.492,4.788c5.294-15.809,23.278-30.844,23.278-30.844-13.734,4.085-20.939,10.93-24.7,17.311a277.2,277.2,0,0,1,16.022-95.775S508.875,556.826,512.5,598.292l.433,7.363c-24.067,3.446-36.167,7.031-36.167,7.031l325.106,4.075q-8.5-1.441-16.782-2.736Zm-274-22.875,3.955,9.418c-3.187.341-6.251.693-9.162,1.052a47.728,47.728,0,0,1,5.207-10.471Z" transform="translate(-187.341 -110.048)" fill="#3f3d56"/>
  <path id="Path_283" data-name="Path 283" d="M905.17,608.1c-.176-.287-4.316-7.2-5.752-21.558-1.317-13.172-.47-35.374,11.044-66.345,21.814-58.672-5.027-106.011-5.3-106.483l1.324-.768c.07.12,7,12.189,11.087,31.409a137.026,137.026,0,0,1-5.675,76.376c-21.776,58.572-5.587,86.3-5.421,86.572Z" transform="translate(-187.341 -110.048)" fill="#3f3d56"/>
  <circle id="Ellipse_57" data-name="Ellipse 57" cx="9.948" cy="9.948" r="9.948" transform="translate(699.351 280.326)" fill="#ff8552"/>
  <circle id="Ellipse_58" data-name="Ellipse 58" cx="9.948" cy="9.948" r="9.948" transform="translate(730.726 317.057)" fill="#3f3d56"/>
  <circle id="Ellipse_59" data-name="Ellipse 59" cx="9.948" cy="9.948" r="9.948" transform="translate(709.299 341.545)" fill="#ff8552"/>
  <circle id="Ellipse_60" data-name="Ellipse 60" cx="9.948" cy="9.948" r="9.948" transform="translate(735.317 362.207)" fill="#ff8552"/>
  <circle id="Ellipse_61" data-name="Ellipse 61" cx="9.948" cy="9.948" r="9.948" transform="translate(701.646 394.347)" fill="#3f3d56"/>
  <path id="Path_284" data-name="Path 284" d="M911.18,608.468s-9.948-24.488,19.9-42.854Z" transform="translate(-187.341 -110.048)" fill="#3f3d56"/>
  <path id="Path_285" data-name="Path 285" d="M898.945,608.023s-4.527-26.041-39.569-25.817Z" transform="translate(-187.341 -110.048)" fill="#3f3d56"/>
  <path id="Path_286" data-name="Path 286" d="M738.068,183.4c-10.912-18.438-32.5-19.3-32.5-19.3s-21.037-2.69-34.532,25.391c-12.579,26.174-29.939,51.446-2.795,57.574l4.9-15.26,3.036,16.4a106.2,106.2,0,0,0,11.614.2c29.069-.939,56.753.275,55.861-10.157C742.469,224.381,748.568,201.144,738.068,183.4Z" transform="translate(-187.341 -110.048)" fill="#2f2e41"/>
  <path id="Path_287" data-name="Path 287" d="M472.074,222.167l-2.3,41.323,67.342,6.888,2.295-42.854-22.957-14.539Z" fill="#a0616a"/>
  <path id="Path_288" data-name="Path 288" d="M840.395,422.9c-2.019-19.522-82.192-28.383-101.46-30.233l-7.2-4.2-2.3-24.488s-71.167-6.122-76.524-6.887-9.948,9.183-9.948,11.479c0,1.659-1,13.508-5.022,20.53-8.682,6.977-35.153,28.929-35.153,37.246,0,9.948,21.044,135.065,21.044,135.065l2.3,26.018,21.427,3.826-1.531-81.116s7.652-46.68-3.061-59.689v-5.357s31.423-8.187,42.5-17.1c3.209-.69,12.227-2.388,17.207-.911.683.4,1.471.815,2.346,1.235a3.572,3.572,0,0,1,.317.323l.086-.132c14.326,6.706,51.077,15.164,66.107,12.759a52.6,52.6,0,0,1,33.671,6.122c-8.418,10.713-2.3,41.323-2.3,41.323l.765,65.811,10.713,13.009h14.54V531.561S842.69,445.089,840.395,422.9Z" transform="translate(-187.341 -110.048)" fill="#2f2e41"/>
  <circle id="Ellipse_62" data-name="Ellipse 62" cx="25.253" cy="25.253" r="25.253" transform="translate(486.231 73.328)" fill="#a0616a"/>
  <path id="Path_289" data-name="Path 289" d="M683.52,224.7s3.826,16.835-1.53,18.366a72.421,72.421,0,0,0-12.244,5.357l-6.122,19.9v19.9l74.228,8.418,2.3-6.887V279.8l-8.418-15.3-3.826-3.826S711.069,242.3,714.9,224.7Z" transform="translate(-187.341 -110.048)" fill="#a0616a"/>
  <path id="Path_290" data-name="Path 290" d="M749.714,285.536s2.3,26.783,0,39.027-1.53,30.61-1.53,30.61l-16.835-3.061V310.789l3.826-22.192Z" transform="translate(-187.341 -110.048)" fill="#a0616a"/>
  <circle id="Ellipse_63" data-name="Ellipse 63" cx="15.61" cy="15.61" r="15.61" transform="translate(505.258 38.54)" fill="#2f2e41"/>
  <path id="Path_291" data-name="Path 291" d="M690.956,160.09a15.61,15.61,0,0,1,13.965-15.522,15.61,15.61,0,1,0,0,31.044,15.611,15.611,0,0,1-13.967-15.522Z" transform="translate(-187.341 -110.048)" fill="#2f2e41"/>
  <path id="Path_292" data-name="Path 292" d="M545.9,71.577,524.574,60.4,495.12,64.975,489.026,91.89l15.169-.584,4.238-9.888v9.725l7-.269L519.5,75.131l2.539,16.759,24.883-.508Z" fill="#2f2e41"/>
  <rect id="Rectangle_54" data-name="Rectangle 54" width="93.359" height="93.359" transform="translate(468.248 270.378)" fill="#f2f2f2"/>
  <path id="Path_293" data-name="Path 293" d="M640.284,272.527,626.51,329.155s-5.357,12.244,6.887,19.9,39.793,17.6,39.793,17.6,24.488,33.671,27.549,19.9-18.366-31.375-18.366-31.375l-37.5-23.722,14.54-39.793Z" transform="translate(-187.341 -110.048)" fill="#a0616a"/>
  <path id="Path_294" data-name="Path 294" d="M739.766,343.694s11.479-1.53,10.713,11.479-16.07,14.54-16.07,14.54-6.887,29.079-16.835,23.722S722.93,359,722.93,359l13.009-9.948Z" transform="translate(-187.341 -110.048)" fill="#a0616a"/>
  <path id="Path_295" data-name="Path 295" d="M665.92,267.553,678.164,242.3l-24.488,8.418s-13.774,6.887-14.54,22.957,17.6,24.488,17.6,24.488,3.061,22.957,1.53,26.018,0,15.3,0,15.3,29.462-8.035,44,1.913,26.4,4.209,26.4,4.209-.765-19.131,5.357-22.192,11.479-17.6,6.122-26.783c0,0,12.244,1.53,11.479-9.948s-6.887-21.427-16.835-26.018-11.048-5.325-11.048-5.325l14.109,25.987v6.887s-24.977-15.943-49.687-17.271a32.913,32.913,0,0,0-22.245,7.323h0Z" transform="translate(-187.341 -110.048)" fill="#2f2e41"/>
  <path id="Path_296" data-name="Path 296" d="M646.363,561.726s10.859,5.11,14.053,7.026,15.969-1.916,13.414,9.581-13.414,22.356-13.414,22.356-5.11,5.749-5.11,9.581-12.775,33.215-28.105,31.938S614.426,625.6,614.426,625.6l3.194-16.608s6.388-28.105,7.665-27.466,4.471,5.11,4.471,5.11S645.725,580.249,646.363,561.726Z" transform="translate(-187.341 -110.048)" fill="#d0cde1"/>
  <path id="Path_297" data-name="Path 297" d="M805.619,542.595s-10.859,5.11-14.053,7.026S775.6,547.7,778.152,559.2s13.414,22.356,13.414,22.356,5.11,5.749,5.11,9.581,12.775,33.215,28.105,31.938,12.775-16.608,12.775-16.608l-3.194-16.608s-6.388-28.105-7.665-27.466-4.471,5.11-4.471,5.11S806.258,561.118,805.619,542.595Z" transform="translate(-187.341 -110.048)" fill="#d0cde1"/>
</svg>
