<svg id="Group_18" data-name="Group 18" xmlns="http://www.w3.org/2000/svg" width="1021.5" height="782.954" viewBox="0 0 1021.5 782.954">
  <ellipse id="Ellipse_34" data-name="Ellipse 34" cx="154.5" cy="25.5" rx="154.5" ry="25.5" transform="translate(712.5 731.954)" fill="#3f3d56"/>
  <path id="Path_182" data-name="Path 182" d="M1086.927,722.093c-.3,54.784-32.978,73.73-73.15,73.508q-1.4-.008-2.786-.047-2.792-.076-5.526-.285c-36.242-2.768-64.3-23.032-64.02-73.982.292-52.726,68.048-118.893,73.129-123.785,0,0,0,0,.009,0,.193-.186.292-.28.292-.28S1087.231,667.313,1086.927,722.093Z" transform="translate(-89.25 -58.523)" fill="#ff8552"/>
  <path id="Path_183" data-name="Path 183" d="M1011.176,787.206l26.81-37.025-26.9,41.1-.095,4.268q-2.792-.076-5.526-.285l3.17-54.791-.02-.424.049-.08.3-5.177-26.509-41.5,26.611,37.624.061,1.1,2.395-41.4L988.87,647.757l22.975,35.586,2.73-85.841.01-.286,0,.281-.75,67.7,22.931-26.715L1013.7,671.031l-.808,37.075,21.479-35.465-21.594,40.915-.449,20.615,31.16-49.359-31.32,56.55Z" transform="translate(-89.25 -58.523)" fill="#3f3d56"/>
  <circle id="Ellipse_35" data-name="Ellipse 35" cx="48.695" cy="48.695" r="48.695" transform="translate(803.759 149.625)" fill="#2f2e41"/>
  <circle id="Ellipse_36" data-name="Ellipse 36" cx="33.068" cy="33.068" r="33.068" transform="translate(812.138 182.264)" fill="#ffb8b8"/>
  <path id="Path_184" data-name="Path 184" d="M914.794,291.729s14.3,33.068,7.15,36.643-10.725,19.662-10.725,19.662l18.768,39.324,25.918,16.087H971.1s15.193-67.923,9.831-75.966-25.024-12.512-25.024-12.512-4.469-10.725-2.681-20.556S914.794,291.729,914.794,291.729Z" transform="translate(-89.25 -58.523)" fill="#ffb8b8"/>
  <path id="Path_185" data-name="Path 185" d="M893.345,385.57,870.108,366.8s-42-29.493-36.643-8.043S862.958,382,862.958,382l40.217,32.174Z" transform="translate(-89.25 -58.523)" fill="#ffb8b8"/>
  <path id="Path_186" data-name="Path 186" d="M891.557,483.88s-10.725,44.686,0,105.459l4.469,24.13s0,18.768,4.469,25.918c0,0,11.618,106.353,17.874,106.353s25.918-3.575,27.705-6.256-34.855-260.073-34.855-260.073Z" transform="translate(-89.25 -58.523)" fill="#2f2e41"/>
  <path id="Path_187" data-name="Path 187" d="M891.557,483.88s-10.725,44.686,0,105.459l4.469,24.13s0,18.768,4.469,25.918c0,0,11.618,106.353,17.874,106.353s25.918-3.575,27.705-6.256-34.855-260.073-34.855-260.073Z" transform="translate(-89.25 -58.523)" opacity="0.1"/>
  <path id="Path_188" data-name="Path 188" d="M920.908,738.6l-13.844,51.306s-27.689,16.288-10.587,19.545,34.2-3.258,34.2-3.258l8.144-23.617,8.144-4.886v25.246h2.443l5.7-33.39s-.814-17.1-5.7-18.731-7.329-10.587-7.329-10.587Z" transform="translate(-89.25 -58.523)" fill="#2f2e41"/>
  <path id="Path_189" data-name="Path 189" d="M920.908,738.6l-13.844,51.306s-27.689,16.288-10.587,19.545,34.2-3.258,34.2-3.258l8.144-23.617,8.144-4.886v25.246h2.443l5.7-33.39s-.814-17.1-5.7-18.731-7.329-10.587-7.329-10.587Z" transform="translate(-89.25 -58.523)" opacity="0.1"/>
  <path id="Path_190" data-name="Path 190" d="M887.983,482.092s7.15,26.812,9.831,31.28c0,0,3.575,75.966,15.193,101.884l12.512,33.068s20.556,97.416,15.193,108.14c0,0,27.705,6.256,29.493,0,0,0-.894-51.836,1.787-58.986s7.15-46.474-14.3-75.073V535.715s33.961-28.6,14.3-65.242S887.983,482.092,887.983,482.092Z" transform="translate(-89.25 -58.523)" fill="#2f2e41"/>
  <path id="Path_191" data-name="Path 191" d="M943.393,751.1l-15.193,56.3s-30.387,17.874-11.618,21.449,37.536-3.575,37.536-3.575l8.937-25.918L971.992,794v27.705h2.681l6.256-36.643s-.894-18.768-6.256-20.556-8.044-11.618-8.044-11.618Z" transform="translate(-89.25 -58.523)" fill="#2f2e41"/>
  <path id="Path_192" data-name="Path 192" d="M923.888,321.7s-22.5,12.931-22.5,13.824,2.681,15.193,2.681,15.193-27.705,27.705-8.937,51.836c0,0,6.256,4.469,6.256,18.768v14.3s-52.73,33.068-39.324,43.792,27.705,8.937,32.174,15.193,30.387-5.362,35.749-7.15,6.256-3.575,10.725,2.681,29.493-4.469,29.493-4.469,16.087-4.469,19.662-4.469a12.364,12.364,0,0,0,6.256-1.787l-38.43-39.324,19.215-48.708s-56.751-35.3-56.751-45.133S923.888,321.7,923.888,321.7Z" transform="translate(-89.25 -58.523)" fill="#3f3d56"/>
  <path id="Path_193" data-name="Path 193" d="M958.587,323.9s-11.618,16.087-2.681,38.43,23.237,48.261,23.237,48.261l-22.343,7.15H936.244s-42.9-7.15-38.43,8.937,34.855,8.937,34.855,8.937h17.874s40.217,4.469,45.58-2.681c0,0,14.3-.894,8.044-29.493s-24.522-77.554-24.522-77.554Z" transform="translate(-89.25 -58.523)" fill="#ffb8b8"/>
  <ellipse id="Ellipse_37" data-name="Ellipse 37" cx="31.187" cy="15.867" rx="31.187" ry="15.867" transform="translate(807.589 168.775)" fill="#2f2e41"/>
  <ellipse id="Ellipse_38" data-name="Ellipse 38" cx="4.469" cy="9.831" rx="4.469" ry="9.831" transform="translate(873.358 203.267)" fill="#ffb8b8"/>
  <circle id="Ellipse_39" data-name="Ellipse 39" cx="26.812" cy="26.812" r="26.812" transform="translate(847.44 128.194)" fill="#2f2e41"/>
  <circle id="Ellipse_40" data-name="Ellipse 40" cx="110" cy="110" r="110" transform="translate(193 56.954)" fill="#ff8552" opacity="0.3"/>
  <circle id="Ellipse_41" data-name="Ellipse 41" cx="65" cy="65" r="65" transform="translate(25 407.954)" fill="#ff8552" opacity="0.3"/>
  <circle id="Ellipse_42" data-name="Ellipse 42" cx="133" cy="133" r="133" transform="translate(374 339.954)" fill="#ff8552" opacity="0.3"/>
  <path id="Path_194" data-name="Path 194" d="M155.38,316.56l-1.956-.417q.628-2.947,1.31-5.875l1.948.454Q156,313.631,155.38,316.56Z" transform="translate(-89.25 -58.523)" fill="#ff8552"/>
  <path id="Path_195" data-name="Path 195" d="M785.137,300.036c-1.025-3.811-2.139-7.659-3.307-11.437l1.91-.591c1.176,3.8,2.3,7.674,3.328,11.508ZM159.6,299.162l-1.93-.525c1.047-3.846,2.182-7.729,3.373-11.541l1.909.6c-1.185,3.789-2.312,7.647-3.353,11.469Zm618.509-21.851c-1.31-3.734-2.7-7.485-4.139-11.146l1.861-.73c1.446,3.684,2.848,7.458,4.164,11.216Zm-611.381-.952-1.886-.667c1.332-3.763,2.751-7.548,4.219-11.252l1.859.736C169.461,268.858,168.051,272.621,166.728,276.359ZM769.42,255.176c-1.574-3.615-3.24-7.254-4.951-10.816l1.8-.866c1.722,3.585,3.4,7.247,4.982,10.884Zm-593.9-1.017-1.831-.806c1.605-3.649,3.3-7.318,5.039-10.9l1.8.872C178.8,246.886,177.119,250.532,175.524,254.159ZM759.118,233.73c-1.844-3.5-3.774-7.009-5.738-10.427l1.734-1c1.976,3.439,3.919,6.969,5.773,10.492Zm-573.182-1.049-1.767-.938c1.872-3.522,3.833-7.054,5.829-10.5l1.73,1C189.745,225.67,187.8,229.181,185.936,232.681Zm561.325-19.59c-2.091-3.35-4.275-6.708-6.49-9.982l1.656-1.121c2.229,3.294,4.427,6.674,6.531,10.044ZM197.9,212.037l-1.692-1.065c2.122-3.369,4.336-6.746,6.582-10.037l1.652,1.127C202.209,205.333,200.008,208.689,197.9,212.037ZM733.914,193.37c-2.321-3.176-4.746-6.367-7.207-9.483l1.57-1.239c2.476,3.136,4.915,6.347,7.252,9.542Zm-522.569-1.034-1.609-1.187c2.367-3.208,4.822-6.413,7.3-9.523l1.564,1.245C216.138,185.962,213.7,189.147,211.345,192.336Zm507.81-17.664c-2.561-3.011-5.213-6.017-7.884-8.934l1.475-1.351c2.688,2.935,5.356,5.959,7.933,8.989Zm-492.96-.994-1.519-1.3c2.589-3.019,5.271-6.034,7.974-8.961l1.47,1.356c-2.686,2.91-5.352,5.906-7.925,8.907ZM703.063,157.1c-2.78-2.822-5.646-5.626-8.52-8.336l1.373-1.455c2.89,2.727,5.773,5.549,8.57,8.388Zm-460.7-.935-1.419-1.409c2.809-2.828,5.7-5.638,8.6-8.352l1.366,1.46C248.031,150.558,245.154,153.351,242.363,156.162ZM685.722,140.74c-2.976-2.609-6.04-5.2-9.107-7.694l1.262-1.551c3.087,2.512,6.17,5.116,9.164,7.741Zm-425.958-.861-1.312-1.509c3.005-2.613,6.1-5.2,9.189-7.7l1.256,1.557C265.823,134.707,262.75,137.282,259.763,139.878Zm407.464-14.189c-3.152-2.38-6.4-4.738-9.649-7.008l1.145-1.64c3.271,2.285,6.538,4.657,9.71,7.051ZM278.3,124.915l-1.2-1.6c3.189-2.387,6.461-4.743,9.725-7l1.139,1.645C284.723,120.2,281.471,122.542,278.3,124.915ZM647.676,112.03c-3.326-2.146-6.739-4.26-10.143-6.283l1.021-1.72c3.425,2.036,6.858,4.163,10.205,6.322Zm-349.8-.677-1.078-1.684c3.351-2.144,6.786-4.253,10.208-6.27l1.016,1.724c-3.4,2-6.815,4.1-10.146,6.231ZM627.163,99.842c-3.468-1.893-7.028-3.75-10.581-5.521l.893-1.79c3.574,1.782,7.157,3.65,10.646,5.555ZM318.389,99.27l-.951-1.76c3.5-1.89,7.075-3.74,10.637-5.5l.886,1.793c-3.54,1.749-7.1,3.588-10.571,5.466ZM605.8,89.194c-3.6-1.632-7.289-3.221-10.964-4.724l.757-1.852c3.7,1.512,7.41,3.112,11.033,4.754Zm-266.077-.461-.819-1.824c3.619-1.624,7.323-3.205,11.008-4.7l.751,1.854c-3.663,1.484-7.343,3.055-10.94,4.669ZM583.7,80.155c-3.727-1.365-7.525-2.677-11.292-3.9l.618-1.9c3.789,1.231,7.611,2.551,11.361,3.924ZM361.766,79.8l-.682-1.88c3.734-1.355,7.542-2.657,11.318-3.87l.612,1.9c-3.752,1.206-7.536,2.5-11.248,3.846Zm199.213-7.026c-3.808-1.082-7.685-2.106-11.523-3.044l.475-1.942c3.862.944,7.763,1.975,11.6,3.063Zm-176.552-.255-.541-1.926c3.827-1.075,7.731-2.094,11.6-3.029l.469,1.944C392.11,70.44,388.23,71.453,384.427,72.521Zm153.4-5.4c-3.873-.8-7.815-1.53-11.716-2.183l.33-1.973c3.925.657,7.892,1.4,11.789,2.2Zm-130.234-.188-.4-1.96c3.9-.791,7.873-1.518,11.795-2.163l.324,1.974c-3.9.64-7.842,1.363-11.723,2.149Zm106.729-3.746c-3.93-.509-7.915-.951-11.845-1.315l.184-1.991c3.955.366,7.964.811,11.918,1.323Zm-83.212-.119-.251-1.984c3.941-.5,7.952-.933,11.921-1.289l.179,1.992c-3.945.354-7.932.785-11.849,1.281Zm59.48-2.077c-3.941-.22-7.948-.371-11.91-.447l.039-2c3.985.078,8.017.229,11.982.45Zm-35.743-.051-.105-2c3.971-.21,8-.35,11.985-.416l.033,2C462.8,60.588,458.8,60.727,454.848,60.936Z" transform="translate(-89.25 -58.523)" fill="#ff8552"/>
  <path id="Path_196" data-name="Path 196" d="M789.354,317.668q-.615-2.931-1.281-5.842l1.949-.447q.672,2.93,1.289,5.879Z" transform="translate(-89.25 -58.523)" fill="#ff8552"/>
  <path id="Path_197" data-name="Path 197" d="M792.052,448.069l-1.963-.388q.579-2.93,1.105-5.878l1.969.351Q792.634,445.121,792.052,448.069Z" transform="translate(-89.25 -58.523)" fill="#ff8552"/>
  <path id="Path_198" data-name="Path 198" d="M472.25,710.477q-3.261,0-6.506-.063l.039-2c3.954.077,7.935.082,11.893.019l.032,2Q474.985,710.476,472.25,710.477Zm17.415-.456-.105-2c3.956-.208,7.946-.491,11.86-.841l.178,1.992C497.66,709.526,493.646,709.811,489.666,710.021Zm-35.875-.058c-3.97-.222-7.983-.519-11.929-.883l.184-1.992c3.922.362,7.912.658,11.857.879Zm59.7-2.069-.251-1.984c3.937-.5,7.9-1.072,11.767-1.707l.323,1.975c-3.9.638-7.878,1.215-11.839,1.717Zm-83.521-.133c-3.952-.513-7.933-1.1-11.834-1.755l.33-1.973c3.876.647,7.833,1.234,11.761,1.743ZM537.1,704.028l-.4-1.961c3.881-.783,7.787-1.647,11.609-2.567l.468,1.945C544.935,702.37,541,703.239,537.1,704.028Zm-130.724-.21c-3.9-.8-7.829-1.683-11.673-2.621l.475-1.943c3.82.933,7.723,1.81,11.6,2.605Zm153.983-5.387-.539-1.926c3.793-1.062,7.625-2.212,11.388-3.418l.61,1.9c-3.786,1.214-7.642,2.371-11.459,3.44Zm-177.225-.284c-3.823-1.084-7.685-2.257-11.478-3.486l.616-1.9c3.771,1.222,7.608,2.388,11.408,3.465Zm199.978-7-.681-1.881c3.7-1.337,7.423-2.763,11.079-4.239l.749,1.854c-3.678,1.485-7.429,2.921-11.147,4.266Zm-222.793-.39c-3.738-1.366-7.5-2.821-11.183-4.325l.756-1.852c3.659,1.494,7.4,2.94,11.113,4.3ZM605.243,682.2l-.816-1.826c3.6-1.61,7.214-3.308,10.743-5.046l.883,1.795c-3.551,1.748-7.187,3.456-10.81,5.077Zm-267.119-.51c-3.624-1.639-7.267-3.366-10.827-5.136l.891-1.791c3.538,1.759,7.158,3.477,10.76,5.1Zm288.547-10.041-.949-1.76c3.477-1.873,6.958-3.832,10.348-5.823l1.014,1.725c-3.412,2-6.915,3.975-10.412,5.858Zm-310-.627c-3.494-1.9-7-3.892-10.415-5.917l1.02-1.721c3.4,2.014,6.878,3.992,10.351,5.881Zm330.607-11.472L646.2,657.87c3.312-2.111,6.641-4.321,9.9-6.569l1.137,1.646c-3.276,2.261-6.627,4.484-9.958,6.608Zm-351.21-.74c-3.34-2.149-6.687-4.391-9.949-6.663l1.143-1.641c3.242,2.258,6.569,4.485,9.888,6.622Zm370.88-12.839-1.2-1.6c3.155-2.353,6.316-4.8,9.395-7.276l1.254,1.559c-3.1,2.491-6.278,4.954-9.453,7.321Zm-390.524-.846c-3.167-2.383-6.341-4.862-9.431-7.37l1.26-1.553c3.072,2.492,6.226,4.956,9.374,7.325Zm409.157-14.14-1.309-1.512c2.98-2.582,5.955-5.255,8.842-7.945L694.476,623c-2.9,2.707-5.9,5.4-8.9,7.994Zm-427.743-.941c-2.994-2.616-5.977-5.32-8.865-8.036l1.37-1.457c2.871,2.7,5.835,5.387,8.812,7.987Zm445.242-15.367-1.416-1.412c2.795-2.8,5.567-5.687,8.241-8.57l1.467,1.359C708.681,608.961,705.891,611.863,703.079,614.682ZM240.407,613.66c-2.787-2.818-5.563-5.731-8.254-8.658l1.473-1.354c2.674,2.909,5.434,5.8,8.2,8.605Zm478.938-16.523-1.516-1.3c2.58-3,5.137-6.075,7.6-9.153l1.563,1.25C724.513,591.024,721.94,594.123,719.345,597.136Zm-495.123-1.088c-2.575-3.017-5.131-6.123-7.6-9.234l1.567-1.242c2.452,3.092,4.992,6.18,7.552,9.178Zm510.073-17.6-1.607-1.191c2.36-3.185,4.686-6.443,6.91-9.686l1.648,1.131C739.009,571.96,736.67,575.239,734.295,578.444Zm-524.924-1.135c-2.35-3.2-4.672-6.481-6.9-9.76l1.654-1.125c2.215,3.259,4.523,6.522,6.858,9.7ZM747.839,558.7l-1.689-1.07c2.11-3.329,4.19-6.751,6.184-10.169l1.729,1.008C752.056,551.909,749.962,555.351,747.839,558.7Zm-551.907-1.156c-2.107-3.357-4.182-6.8-6.166-10.234l1.731-1c1.972,3.412,4.034,6.834,6.128,10.172ZM759.9,538.012l-1.764-.943c1.87-3.5,3.693-7.063,5.421-10.6l1.8.877C763.621,530.9,761.786,534.494,759.9,538.012Zm-575.923-1.155c-1.856-3.5-3.671-7.089-5.4-10.654l1.8-.871c1.713,3.544,3.518,7.106,5.362,10.59Zm586.436-20.373-1.828-.811c1.6-3.608,3.156-7.3,4.626-10.979l1.857.742c-1.479,3.7-3.045,7.416-4.655,11.047Zm-596.831-1.127c-1.594-3.632-3.14-7.339-4.6-11.017l1.86-.736c1.446,3.656,2.982,7.34,4.566,10.949Zm605.729-21.133-1.883-.674c1.333-3.729,2.612-7.53,3.8-11.3l1.906.6C781.945,486.646,780.657,490.47,779.315,494.224Zm-614.508-1.061c-1.323-3.743-2.595-7.562-3.778-11.353l1.909-.6c1.176,3.766,2.439,7.562,3.755,11.282Zm621.737-21.809-1.928-.533c1.047-3.791,2.039-7.666,2.949-11.518l1.947.461C788.6,463.64,787.6,467.54,786.545,471.355Zm-628.872-1.026c-1.041-3.825-2.025-7.723-2.926-11.586l1.948-.453c.895,3.839,1.873,7.713,2.907,11.514Z" transform="translate(-89.25 -58.523)" fill="#ff8552"/>
  <path id="Path_199" data-name="Path 199" d="M152.207,446.83q-.571-2.95-1.09-5.919l1.971-.344q.514,2.95,1.083,5.882Z" transform="translate(-89.25 -58.523)" fill="#ff8552"/>
  <path id="Path_200" data-name="Path 200" d="M635.515,448.983l-1.859-.735c.726-1.835,1.431-3.713,2.1-5.584l1.885.671C636.963,445.227,636.249,447.127,635.515,448.983Z" transform="translate(-89.25 -58.523)" fill="#ff8552"/>
  <path id="Path_201" data-name="Path 201" d="M472.25,559.977c-2.4,0-4.813-.049-7.186-.145l.081-2c3.936.159,7.959.187,11.908.077l.055,2Q474.687,559.978,472.25,559.977Zm16.878-.8-.189-1.99c3.938-.375,7.911-.893,11.807-1.536l.326,1.973C497.13,558.274,493.112,558.8,489.128,559.175Zm-36.074-.236c-3.978-.433-7.989-1.009-11.921-1.713l.353-1.969c3.887.7,7.852,1.266,11.785,1.693Zm59.826-3.689-.462-1.945c3.851-.914,7.714-1.972,11.482-3.146l.595,1.91c-3.812,1.186-7.72,2.257-11.615,3.181Zm-83.523-.553c-3.884-.976-7.779-2.1-11.577-3.337l.62-1.9c3.755,1.225,7.605,2.335,11.444,3.3Zm106.508-6.605-.726-1.863c3.681-1.433,7.362-3.014,10.94-4.7l.853,1.809c-3.621,1.705-7.344,3.3-11.067,4.753Zm-129.4-.862c-3.71-1.5-7.413-3.15-11.005-4.9l.877-1.8c3.551,1.731,7.211,3.361,10.878,4.846Zm151.184-9.394-.975-1.746c3.455-1.93,6.884-4,10.193-6.157l1.092,1.676C564.61,533.789,561.141,535.884,557.646,537.835ZM384.815,536.68c-3.466-2-6.907-4.138-10.227-6.365l1.114-1.66c3.282,2.2,6.684,4.319,10.111,6.293Zm193-11.991-1.205-1.6c3.161-2.386,6.276-4.906,9.258-7.492l1.311,1.512C584.165,519.728,581.014,522.277,577.817,524.689Zm-213-1.425c-3.167-2.454-6.283-5.046-9.263-7.7l1.331-1.492c2.945,2.625,6.026,5.187,9.157,7.614ZM596,508.916l-1.41-1.418c2.8-2.79,5.547-5.711,8.152-8.682l1.5,1.318c-2.635,3-5.409,5.959-8.246,8.781ZM346.842,507.25c-2.8-2.856-5.532-5.847-8.128-8.889l1.521-1.3c2.567,3.008,5.271,5.965,8.036,8.789Zm265.037-16.438-1.59-1.213c2.4-3.142,4.716-6.408,6.895-9.711l1.67,1.1C616.649,484.331,614.3,487.635,611.879,490.812Zm-280.668-1.874c-2.385-3.214-4.687-6.55-6.841-9.914l1.685-1.078c2.13,3.325,4.405,6.623,6.763,9.8Zm293.925-18.225-1.74-.984c1.944-3.44,3.795-6.994,5.5-10.562l1.8.862c-1.725,3.609-3.6,7.2-5.564,10.685Zm-306.911-2.047c-1.923-3.512-3.747-7.131-5.419-10.756l1.816-.838c1.653,3.584,3.456,7.161,5.356,10.633Z" transform="translate(-89.25 -58.523)" fill="#ff8552"/>
  <path id="Path_202" data-name="Path 202" d="M308.115,446.739c-.708-1.865-1.395-3.775-2.043-5.678l1.894-.645c.641,1.881,1.32,3.77,2.02,5.613Z" transform="translate(-89.25 -58.523)" fill="#ff8552"/>
  <path id="Path_203" data-name="Path 203" d="M311.205,319.8l-1.855-.746c.749-1.864,1.539-3.734,2.347-5.559l1.829.81C312.727,316.111,311.946,317.959,311.205,319.8Z" transform="translate(-89.25 -58.523)" fill="#ff8552"/>
  <path id="Path_204" data-name="Path 204" d="M318.781,303.472l-1.768-.935c1.889-3.573,3.93-7.126,6.065-10.562l1.7,1.056C322.666,296.428,320.649,299.94,318.781,303.472Zm305.36-2.913c-1.933-3.493-4.017-6.966-6.192-10.324l1.678-1.088c2.2,3.4,4.31,6.91,6.265,10.443ZM331.481,283.032l-1.622-1.171c2.367-3.278,4.878-6.515,7.465-9.622l1.537,1.28C336.3,276.591,333.821,279.791,331.481,283.032Zm279.571-2.667c-2.4-3.193-4.942-6.346-7.559-9.37l1.512-1.309c2.647,3.059,5.22,6.248,7.646,9.478ZM346.881,264.54l-1.445-1.383c2.795-2.92,5.728-5.781,8.718-8.5l1.347,1.479C352.544,258.824,349.645,261.652,346.881,264.54Zm248.426-2.371c-2.818-2.835-5.771-5.608-8.778-8.242l1.318-1.5c3.041,2.664,6.027,5.468,8.878,8.335ZM364.678,248.341l-1.241-1.568c3.173-2.51,6.472-4.94,9.8-7.222l1.13,1.65C371.076,243.457,367.815,245.859,364.678,248.341Zm212.527-2.03c-3.18-2.419-6.486-4.759-9.828-6.954l1.1-1.672c3.381,2.221,6.726,4.587,9.941,7.034ZM384.535,234.75l-1.013-1.725c3.486-2.046,7.089-4,10.708-5.8l.891,1.791C391.543,230.8,387.981,232.728,384.535,234.75Zm172.556-1.65c-3.489-1.96-7.088-3.819-10.7-5.527l.855-1.808c3.649,1.728,7.29,3.609,10.819,5.591Zm-151.01-9.06-.764-1.849c3.736-1.543,7.576-2.973,11.411-4.251l.632,1.9C413.57,221.1,409.775,222.515,406.082,224.041Zm129.26-1.235c-3.726-1.456-7.548-2.8-11.359-3.985l.6-1.909c3.855,1.2,7.722,2.559,11.491,4.031Zm-106.436-6.37-.5-1.937c3.913-1.006,7.915-1.888,11.893-2.619l.361,1.967C436.73,214.569,432.775,215.44,428.906,216.435Zm83.466-.8c-3.888-.92-7.859-1.715-11.8-2.363l.324-1.974c3.99.655,8.007,1.459,11.94,2.39Zm-59.8-3.558-.225-1.987c4-.452,8.088-.771,12.14-.948l.087,2C460.567,211.319,456.529,211.634,452.571,212.081Zm36.059-.341c-3.97-.372-8.014-.611-12.017-.709l.049-2c4.05.1,8.139.341,12.155.717Z" transform="translate(-89.25 -58.523)" fill="#ff8552"/>
  <path id="Path_205" data-name="Path 205" d="M632.055,316.8c-.774-1.827-1.59-3.661-2.423-5.451l1.813-.844c.843,1.811,1.668,3.666,2.452,5.514Z" transform="translate(-89.25 -58.523)" fill="#ff8552"/>
  <path id="Path_206" data-name="Path 206" d="M657.871,384.24a11.346,11.346,0,1,0,7.979,3.323,11.183,11.183,0,0,0-7.979-3.323Z" transform="translate(-89.25 -58.523)" fill="#3f3d56"/>
  <path id="Path_207" data-name="Path 207" d="M612.629,384.24a11.346,11.346,0,1,0,7.979,3.323A11.346,11.346,0,0,0,612.629,384.24Z" transform="translate(-89.25 -58.523)" fill="#3f3d56"/>
  <path id="Path_208" data-name="Path 208" d="M635.25,321.477a57,57,0,1,0,57,57A57,57,0,0,0,635.25,321.477Zm11.077,23.769a5.452,5.452,0,0,1,5.5,5.5,5.539,5.539,0,1,1-5.5-5.5Zm-33.7,66.462a16.157,16.157,0,1,1,16.148-16.151,16.157,16.157,0,0,1-16.148,16.151Zm25.39-32.192v15.577a2.769,2.769,0,1,1-5.538,0V383.687c0-2.267-2.769-2.769-10.644-7.3-1.021-.606-3.2-1.679-3.2-4.69a5.636,5.636,0,0,1,1.61-3.877l12.41-11.96A5.415,5.415,0,0,1,641.221,357l5.106,10.4h8.308a2.769,2.769,0,1,1,0,5.539H644.7c-1.852,0-3.34-3.981-6.577-8.914l-8.464,8.914c3.1,2.423,8.36,4.292,8.36,6.577Zm19.852,32.175a16.148,16.148,0,1,1,16.148-16.148,16.148,16.148,0,0,1-16.148,16.148Z" transform="translate(-89.25 -58.523)" fill="#3f3d56"/>
  <path id="Path_209" data-name="Path 209" d="M797.25,321.477a57,57,0,1,0,57,57A57,57,0,0,0,797.25,321.477Zm-15.11,40.748a8.864,8.864,0,1,1-9.069,8.862,8.958,8.958,0,0,1,9.069-8.862Zm48.34,38.406h-6.04v-8.862H770.06v8.862h-6.04V356.323h6.04v26.585h24.161V362.225H818.4a11.95,11.95,0,0,1,12.081,11.821Z" transform="translate(-89.25 -58.523)" fill="#3f3d56"/>
  <path id="Path_210" data-name="Path 210" d="M166.327,363.246H149.365a.694.694,0,0,0-.692.692v24.231a.694.694,0,0,0,.692.692h16.962a2.777,2.777,0,0,0,2.769-2.769V366.016a2.777,2.777,0,0,0-2.769-2.769Z" transform="translate(-89.25 -58.523)" fill="#3f3d56"/>
  <path id="Path_211" data-name="Path 211" d="M162.519,394.054a4.167,4.167,0,1,0,3.275,1.207,4.159,4.159,0,0,0-3.275-1.207Z" transform="translate(-89.25 -58.523)" fill="#3f3d56"/>
  <path id="Path_212" data-name="Path 212" d="M129.306,394.054a4.167,4.167,0,1,0,3.275,1.207,4.159,4.159,0,0,0-3.275-1.207Z" transform="translate(-89.25 -58.523)" fill="#3f3d56"/>
  <path id="Path_213" data-name="Path 213" d="M143.135,363.246H126.208a2.814,2.814,0,0,0-2.8,2.8v20.008a2.814,2.814,0,0,0,2.8,2.8h16.927a.694.694,0,0,0,.692-.692V363.939a.694.694,0,0,0-.692-.692Z" transform="translate(-89.25 -58.523)" fill="#3f3d56"/>
  <path id="Path_214" data-name="Path 214" d="M146.25,321.477a57,57,0,1,0,57,57A57,57,0,0,0,146.25,321.477Zm27.692,80.192a6.943,6.943,0,0,1-6.923,6.923H125.481a6.943,6.943,0,0,1-6.923-6.923V353.9a5.555,5.555,0,0,1,5.538-5.538H168.4a5.555,5.555,0,0,1,5.538,5.538Z" transform="translate(-89.25 -58.523)" fill="#3f3d56"/>
  <path id="Path_215" data-name="Path 215" d="M166.5,353.208H126a2.429,2.429,0,1,0,0,4.846h40.5a2.429,2.429,0,1,0,0-4.846Z" transform="translate(-89.25 -58.523)" fill="#3f3d56"/>
  <path id="Path_216" data-name="Path 216" d="M316.865,380.035c-1.142,0-2.077,1.7-2.077,3.808s.935,3.808,2.077,3.808,2.077-1.7,2.077-3.808S318.008,380.035,316.865,380.035Z" transform="translate(-89.25 -58.523)" fill="#3f3d56"/>
  <path id="Path_217" data-name="Path 217" d="M301.635,380.035c-1.142,0-2.077,1.7-2.077,3.808s.935,3.808,2.077,3.808,2.077-1.7,2.077-3.808S302.777,380.035,301.635,380.035Z" transform="translate(-89.25 -58.523)" fill="#3f3d56"/>
  <path id="Path_218" data-name="Path 218" d="M309.25,321.477a57,57,0,1,0,57,57,57,57,0,0,0-57-57ZM282.6,376.539l3.15-16.754c.813-4.552,2.925-8.135,6.888-8.135h5.954l.346-1.367a5.535,5.535,0,0,1,5.365-4.171h9.865a5.539,5.539,0,0,1,5.365,4.154l.346,1.385h5.988c3.877,0,5.937,3.513,6.906,8.117v.017l3.167,16.771a.691.691,0,0,1-.969.762l-4.4-2.025a.659.659,0,0,1-.4-.5l-2.8-14.815c-.519-1.9-1.246-2.769-2.787-2.769H293.933c-1.523,0-2.354.917-2.786,2.769l-2.8,14.815a.7.7,0,0,1-.4.5l-4.379,2.008a.695.695,0,0,1-.969-.762Zm61.044,10.783-9.467,23.521c-4.76,0-9.813-3.808-9.813-3.808-3.115,1.575-9.19,2.96-13.725,3.219-.485.017-.952.035-1.385.035s-.9,0-1.385-.035c-4.535-.26-10.61-1.662-13.725-3.219,0,0-5.054,3.808-9.813,3.808l-9.467-23.521a3.216,3.216,0,0,1-.225-1.16,3.127,3.127,0,0,1,1.817-2.839l32.21-14.8a1.36,1.36,0,0,1,1.16,0l32.227,14.8a3.127,3.127,0,0,1,1.817,2.838A3.216,3.216,0,0,1,343.64,387.321Z" transform="translate(-89.25 -58.523)" fill="#3f3d56"/>
  <path id="Path_219" data-name="Path 219" d="M472.25,321.477a57,57,0,1,0,57,57A57,57,0,0,0,472.25,321.477Zm26.258,62.556c-.589,0-2.544-.017-3.115-.052l-11.233-.294a.34.34,0,0,0-.294.156l-16.858,25.2a2.76,2.76,0,0,1-2.337,1.281h-4.1c-.969,0-1.3-.969-.952-1.869l8.671-24.733a.343.343,0,0,0-.311-.467l-21.064-.467a1.418,1.418,0,0,0-1.142.537l-6.525,7.91a2.8,2.8,0,0,1-2.181,1.056h-2.89a.689.689,0,0,1-.658-.917l3.444-11.89a2.821,2.821,0,0,0,0-2.06l-3.444-11.89a.689.689,0,0,1,.658-.917h2.908a2.747,2.747,0,0,1,2.181,1.056l6.4,7.788a1.394,1.394,0,0,0,1.142.536l21.185-.312a.339.339,0,0,0,.312-.467L459.635,348.5c-.346-.9-.017-1.869.952-1.869h4.1a2.782,2.782,0,0,1,2.336,1.281l16.84,25.217a.321.321,0,0,0,.294.156l11.233-.294c.554-.035,2.527-.052,3.115-.052,7.685,0,12.513,2.492,12.513,5.556S506.175,384.033,498.508,384.033Z" transform="translate(-89.25 -58.523)" fill="#3f3d56"/>
  <path id="Path_220" data-name="Path 220" d="M154.922,570.613a12,12,0,1,1,12-12,12,12,0,0,1-12,12Zm0-22a10,10,0,1,0,10,10,10,10,0,0,0-10-10Z" transform="translate(-89.25 -58.523)" fill="#f0f0f0"/>
  <path id="Path_221" data-name="Path 221" d="M407.922,301.613a12,12,0,1,1,12-12,12,12,0,0,1-12,12Zm0-22a10,10,0,1,0,10,10A10,10,0,0,0,407.922,279.613Z" transform="translate(-89.25 -58.523)" fill="#f0f0f0"/>
  <path id="Path_222" data-name="Path 222" d="M631.394,630.983l-13.465-14.436,14.436-13.465,13.465,14.436Zm-11.319-14.362,11.394,12.215,12.215-11.394L632.29,605.228Z" transform="translate(-89.25 -58.523)" fill="#f0f0f0"/>
</svg>
