<svg xmlns="http://www.w3.org/2000/svg" width="714.545" height="573.499" viewBox="0 0 714.545 573.499">
    <g id="Group_13" data-name="Group 13" transform="translate(0)">
      <path id="Path_141" data-name="Path 141" d="M826.305,585.005a5.754,5.754,0,0,1-5.882-5.163l-.876-12.517a5.664,5.664,0,0,1,5.5-5.873l104.792-6.422c6.947-.426,12.947,4.5,13.4,11s-4.808,12.116-11.755,12.542L826.7,584.993Q826.5,585.005,826.305,585.005Z" transform="translate(-277.277 -185.456)" fill="#ff8552"/>
      <path id="Path_142" data-name="Path 142" d="M850.851,586.313a5.748,5.748,0,0,1-5.9-5.318l-.747-18.7a5.689,5.689,0,0,1,5.679-5.726l86.173-3.014a5.757,5.757,0,0,1,6.12,5.314l.747,18.7a5.689,5.689,0,0,1-5.679,5.726l-86.173,3.014C851,586.311,850.924,586.313,850.851,586.313Z" transform="translate(-281.159 -185.15)" fill="#2f2e41"/>
      <path id="Path_143" data-name="Path 143" d="M968.327,782.652h-13.4a5.729,5.729,0,0,1-5.9-5.524V672.582a5.73,5.73,0,0,1,5.9-5.524h13.4a5.729,5.729,0,0,1,5.9,5.524V777.128A5.729,5.729,0,0,1,968.327,782.652Z" transform="translate(-297.654 -209.153)" fill="#2f2e41"/>
      <path id="Path_144" data-name="Path 144" d="M930.327,782.652h-13.4a5.729,5.729,0,0,1-5.9-5.524V672.582a5.729,5.729,0,0,1,5.9-5.524h13.4a5.729,5.729,0,0,1,5.9,5.524V777.128A5.729,5.729,0,0,1,930.327,782.652Z" transform="translate(-291.674 -209.153)" fill="#2f2e41"/>
      <ellipse id="Ellipse_29" data-name="Ellipse 29" cx="46.317" cy="43.343" rx="46.317" ry="43.343" transform="translate(603.998 262.115)" fill="#ff8552"/>
      <path id="Path_145" data-name="Path 145" d="M916.862,484.917a11.174,11.174,0,0,1-4.011-2.2,6.666,6.666,0,0,1-2.159-5.472,4.6,4.6,0,0,1,2.209-3.579,6.815,6.815,0,0,1,6.127-.067l-.085-16.921,1.816-.008.1,19.892-1.4-.824c-1.623-.954-3.94-1.625-5.578-.642A2.948,2.948,0,0,0,912.5,477.4a5.036,5.036,0,0,0,1.605,4.08c2.006,1.793,4.932,2.353,8.269,2.854l-.288,1.678a31.693,31.693,0,0,1-5.224-1.1Z" transform="translate(-291.618 -164.661)" fill="#2f2e41"/>
      <path id="Path_156" data-name="Path 156" d="M0,0,1.7.015l.082,9.772-1.7-.015Z" transform="translate(608.364 292.847) rotate(-82.477)" fill="#2f2e41"/>
      <path id="Path_157" data-name="Path 157" d="M0,0,1.7.015l.082,9.772-1.7-.015Z" transform="translate(638.976 296.629) rotate(-82.477)" fill="#2f2e41"/>
      <path id="Path_146" data-name="Path 146" d="M969.176,674.308h-69.63a7.654,7.654,0,0,1-7.495-5.49,6.652,6.652,0,0,1-.1-2.618s13.6-71.474,20.329-105.8c2.024-10.325,11.641-17.822,22.859-17.82h0c27.741,0,50.23,21.045,50.23,47.005v69.571c0,8.369-7.249,15.153-16.192,15.153Z" transform="translate(-288.659 -182.829)" fill="#2f2e41"/>
      <path id="Path_147" data-name="Path 147" d="M963.089,667.432a5.984,5.984,0,0,1-5.532,3.056l-13.392-.528a5.684,5.684,0,0,1-5.649-5.752l4.42-98.186c.293-6.509,6.169-11.563,13.124-11.289s12.356,5.773,12.063,12.282L963.7,665.2A5.215,5.215,0,0,1,963.089,667.432Z" transform="translate(-296 -185.397)" fill="#ff8552"/>
      <path id="Path_148" data-name="Path 148" d="M969.454,640.636a5.984,5.984,0,0,1-5.532,3.056l-22.875-.9a5.691,5.691,0,0,1-5.649-5.752l3.629-80.625a5.761,5.761,0,0,1,6.146-5.287l22.875.9a5.684,5.684,0,0,1,5.649,5.752L970.068,638.4a5.224,5.224,0,0,1-.615,2.231Z" transform="translate(-295.51 -184.635)" fill="#2f2e41"/>
      <path id="Path_149" data-name="Path 149" d="M937.907,427.631c-9.991,3.687-25.087,7.606-31.673-3.34a16.861,16.861,0,0,1-1.084-14.7c1.989-5.164,6.221-9.418,11.044-12.425,9.033-5.631,20.463-7.164,30.984-4.988a43.827,43.827,0,0,1,14.786,5.946c5.089,3.265,8.672,7.672,12.274,12.284,3.682,4.715,7.851,9.471,13.9,11.536,4.947,1.689,11.151.827,14.651-3.1a9.448,9.448,0,0,0,1.849-3.1c.525-1.444-1.916-2.064-2.438-.629-1.839,5.058-8.61,6.191-13.39,4.554-6.311-2.161-10.3-7.776-14.081-12.624a45.715,45.715,0,0,0-12.844-11.788,46.45,46.45,0,0,0-15.34-5.6c-10.953-1.95-22.749-.222-32.031,5.732A29.514,29.514,0,0,0,903,408.264a19.208,19.208,0,0,0,.151,15.49,17.36,17.36,0,0,0,12.721,9.7c6.12,1.161,12.479-.175,18.289-2.015,1.489-.472,2.96-.989,4.421-1.528,1.5-.552.844-2.841-.672-2.281Z" transform="translate(-290.166 -150.326)" fill="#2f2e41"/>
      <path id="Path_150" data-name="Path 150" d="M216.553,86.347h317.1c22.385.024,40.526,17,40.551,37.948V286.633c-.025,20.948-18.166,37.924-40.551,37.948h-317.1c-22.385-.024-40.526-17-40.551-37.948V124.3c.025-20.948,18.166-37.924,40.551-37.948Z" transform="translate(-176.001 -86.347)" fill="#f2f2f2"/>
      <path id="Path_151" data-name="Path 151" d="M218.733,100.2h317.1c15.941.017,28.86,12.106,28.878,27.023V289.563c-.018,14.918-12.936,27.007-28.878,27.023h-317.1c-15.941-.017-28.859-12.106-28.877-27.023V127.225C189.873,112.307,202.791,100.218,218.733,100.2Z" transform="translate(-178.182 -89.277)" fill="#fff"/>
      <path id="Path_152" data-name="Path 152" d="M226.452,444.656a7.7,7.7,0,0,1-2.786-.527,6.61,6.61,0,0,1-4.421-6.192V381.817l79.951-2.517-67.724,63.376A7.31,7.31,0,0,1,226.452,444.656Z" transform="translate(-182.806 -148.299)" fill="#f2f2f2"/>
      <rect id="Rectangle_17" data-name="Rectangle 17" width="273.011" height="32.351" rx="16.176" transform="translate(62.207 51.304)" fill="#f2f2f2"/>
      <rect id="Rectangle_18" data-name="Rectangle 18" width="273.011" height="32.351" rx="16.176" transform="translate(62.594 102.941)" fill="#f2f2f2"/>
      <rect id="Rectangle_19" data-name="Rectangle 19" width="273.011" height="32.351" rx="16.176" transform="translate(62.98 154.579)" fill="#f2f2f2"/>
      <path id="Path_153" data-name="Path 153" d="M751.565,191.347H434.47c-22.385.024-40.526,17-40.551,37.948V391.633c.025,20.948,18.166,37.924,40.551,37.948h317.1c22.385-.024,40.526-17,40.551-37.948V229.3c-.025-20.948-18.166-37.924-40.551-37.948Z" transform="translate(-210.296 -108.552)" fill="#e6e6e6"/>
      <path id="Path_154" data-name="Path 154" d="M753.746,205.2H436.65c-15.941.017-28.86,12.106-28.878,27.023V394.563c.018,14.918,12.936,27.007,28.878,27.023h317.1c15.941-.017,28.859-12.106,28.877-27.023V232.225c-.018-14.918-12.936-27.007-28.877-27.024Z" transform="translate(-212.476 -111.482)" fill="#fff"/>
      <path id="Path_155" data-name="Path 155" d="M777.085,547.676,709.361,484.3l79.951,2.517v56.119a6.61,6.61,0,0,1-4.421,6.192,7.7,7.7,0,0,1-2.786.528,7.311,7.311,0,0,1-5.019-1.98Z" transform="translate(-259.938 -170.504)" fill="#e6e6e6"/>
      <ellipse id="Ellipse_30" data-name="Ellipse 30" cx="21.908" cy="20.502" rx="21.908" ry="20.502" transform="translate(290.876 181.41)" fill="#ff8552"/>
      <ellipse id="Ellipse_31" data-name="Ellipse 31" cx="21.908" cy="20.502" rx="21.908" ry="20.502" transform="translate(360.814 181.41)" fill="#ff8552"/>
      <ellipse id="Ellipse_32" data-name="Ellipse 32" cx="21.908" cy="20.502" rx="21.908" ry="20.502" transform="translate(430.752 181.41)" fill="#ff8552"/>
    </g>
  </svg>